<svg xmlns="http://www.w3.org/2000/svg" width="266.853" height="366.948" viewBox="0 0 266.853 366.948">
  <g id="UgN6ob.tif" transform="translate(101.983 -84.021)">
    <g id="Group_103" data-name="Group 103" transform="translate(-103 83)">
      <path id="Path_878" data-name="Path 878" d="M431.51,190.77a1.76,1.76,0,0,1-2.12.22,4.59,4.59,0,0,1-1.07-2.83,14.718,14.718,0,0,1-.14-1.49c-1.71-8.46-8.05-12.42-15.23-15.41a49.768,49.768,0,0,0-7.18-1.88c-7.79-.29-15.57-.12-23.35-.12H198.15a45.4,45.4,0,0,0-7.91.26c-5.08,1.36-10.26,2.22-14.63,5.73-6.19,5-8.63,11.5-9.21,19.07a19.72,19.72,0,0,0-.26,4.47q0,113.06,0,226.09c.23,3,1.31,5.94,1,9,0,2.36.1,4.72,0,7.08.12,1.49,0,3,0,4.48.25,20.75.07,41.5.1,62.25,0,4,.33,8,2,11.68a13,13,0,0,0,3.84,5.5,29.491,29.491,0,0,0,4.58,4.28,32.813,32.813,0,0,0,7,3.09C185.91,532.7,431.51,184.12,431.51,190.77Z" transform="translate(-163.64 -166.75)" fill="#fdfdfe"/>
      <path id="Path_879" data-name="Path 879" d="M187.62,534.68c-3.46-2.07-8-1.83-10.94-5-.05-1.36.92-1.45,1.9-1.55,7.07,2.15,14.34,2,21.63,2,23.32,0,46.65-.22,70,.13,5.75-.15,11.49-.27,17.24-.07,37.47-.26,74.94-.09,112.41-.11,2.93,0,6-.59,8.66,1.38.12,2.75-2,2.08-3.46,2.15-3.47.16-6.94,0-10.42,0H279.08c-2.3,0-4.63-.25-6.91.36-26.06.25-52.12,0-78.19.14-1.77,0-3.63-.49-5.33.49Z" transform="translate(-163.64 -166.75)" fill="#cfcfcf"/>
      <path id="Path_880" data-name="Path 880" d="M272.25,533.64c1.66-1.66,3.76-.92,5.66-.92q62.54-.08,125.06-.07c1.9,0,4,.74,5.65-.95,2.87-2.42,6.47-2.8,9.93-3.55a1.75,1.75,0,0,1,1.45,1.59c-1,2.93-3.63,3.34-6.18,4-1.73.45-3.6-.06-5.2.93h-2c-1.71-1-3.57-.49-5.36-.49q-63.58-.06-127.19,0a2.79,2.79,0,0,1-1.82-.54Z" transform="translate(-163.64 -166.75)" fill="#cbcaca"/>
      <path id="Path_883" data-name="Path 883" d="M273.23,533.72H401.98c1.58,0,3.36-.57,4.65,1H273.23c-.32-.22-.43-.43-.32-.64S273.12,533.72,273.23,533.72Z" transform="translate(-163.64 -166.75)" fill="#e8e7e6"/>
      <path id="Path_884" data-name="Path 884" d="M429.65,190.69l1.86.08V293.44a1.16,1.16,0,0,1-1.6-.51c-1.83-5.48-.65-11.13-.9-16.69-.13-3,.23-5.94,0-8.91-.09-24.59-.11-49.19.11-73.79a4.44,4.44,0,0,1,.53-2.85Z" transform="translate(-163.64 -166.75)" fill="#bac4e4"/>
      <path id="Path_885" data-name="Path 885" d="M273.23,533.72v1H188.62c1.63-1.74,3.75-1,5.64-1q39-.11,78-.08Z" transform="translate(-163.64 -166.75)" fill="#ebeae9"/>
      <path id="Path_886" data-name="Path 886" d="M430.66,293.44h.85V337.3a1.18,1.18,0,0,1-1.63-.56c-1.06-2-.92-4.14-.93-6.27,0-10-.06-20.06,0-30.09C429,298,428.55,295.37,430.66,293.44Z" transform="translate(-163.64 -166.75)" fill="#b5c6e6"/>
      <path id="Path_887" data-name="Path 887" d="M431.51,365.21h-1a3.3,3.3,0,0,1-1.13-2.07,19.845,19.845,0,0,1-.21-3.18c0-1.85,0-3.7,0-5.56a7.18,7.18,0,0,1,.89-3.93,1,1,0,0,1,1.43-.22Z" transform="translate(-163.64 -166.75)" fill="#eeeded"/>
      <path id="Path_889" data-name="Path 889" d="M270.25,531.68H190.48a26.329,26.329,0,0,1-12.81-3c-2.28-.42-3.58-2.21-5.1-3.67a21.08,21.08,0,0,0-3.83-3.29,23.71,23.71,0,0,1-3.09-12.29c.13-21.5.07-43,.07-64.49,5-1.49,10.25-1.2,15.17-2.9a5.377,5.377,0,0,1,1.44.2c4.17,2.65,7.06,6.7,10.69,9.94,2,2.1,4,4.12,6.09,6.14q2.53,2.64,5.19,5.16c4.83,4.9,9.72,9.73,14.58,14.6,1.66,1.77,3.4,3.49,5.15,5.19q3,3.1,6.1,6.09c3.18,3.24,6.42,6.42,9.62,9.63,1.62,1.74,3.31,3.41,5,5.08q1.51,1.61,3.1,3.15c.76.76,1.53,1.51,2.31,2.26,1.59,1.58,3.18,3.17,4.8,4.73,2.21,2.28,4.48,4.51,6.73,6.76,1.64,1.74,3.34,3.43,5.06,5.11,1.28,1.46,2.9,2.64,3.84,4.41A1.14,1.14,0,0,1,270.25,531.68Z" transform="translate(-163.64 -166.75)" fill="#e2e1e1"/>
      <path id="Path_890" data-name="Path 890" d="M429.55,186.79a.87.87,0,0,1,.09.93c-1.14,4.83-.06,9.72-.58,14.63-4.75,45.18-20.38,86.19-46.42,123.29A242.945,242.945,0,0,1,359,354.41c-1.49,1.54-2.93,3.19-5.1,3.87a121.584,121.584,0,0,1-21.92-.13c-3-2.33-.2-3.84,1-5.15,4.14-4.53,8.66-8.7,12.93-13.12a228.381,228.381,0,0,0,50.7-81.94A232.677,232.677,0,0,0,410,199.84c.64-6.92,1.67-13.84,1.35-20.84-.1-2.29-.38-4.67.76-6.85,2.27-1.61,4.11,0,5.86,1a24.53,24.53,0,0,1,11.58,13.64Z" transform="translate(-163.64 -166.75)" fill="#5c83c2"/>
      <path id="Path_891" data-name="Path 891" d="M354.86,357.23c12.6-13.59,24.35-27.84,34.28-43.56a257.22,257.22,0,0,0,35.37-89.48c2.15-11.17,4-22.41,4-33.85a2.86,2.86,0,0,1,1.1-2.62q0,1.5,0,3a22.749,22.749,0,0,1,.83,4.31q0,36.3-.1,72.58c-5.28,20.15-15.52,38-26.19,55.56a231.711,231.711,0,0,1-23.26,31.64c-1.31,1.51-2.55,3.07-4.63,3.58-5.78.54-11.56.2-17.34.22C357.47,358.59,356,358.5,354.86,357.23Z" transform="translate(-163.64 -166.75)" fill="#5b83c2"/>
      <path id="Path_892" data-name="Path 892" d="M429.55,186.79c-4.09-6.76-8.79-12.81-16.95-14.93-5.67,1.62-11.42-.06-17.12.42-5.3.16-10.59.14-15.89,0-11.16.18-22.31.2-33.47,0-5.36.13-10.72.16-16.08,0-5.64.14-11.29.16-16.93,0-5.64.14-11.27.16-16.91,0-5.32.14-10.64.15-16,0-5.63.14-11.27.16-16.9,0-5.61.14-11.22.16-16.83,0-5.19.1-10.37.15-15.56,0h-26.8c-5.62,0-5.69.14-6.19,5.81a26,26,0,0,1-26.31,24c-2.28,0-4.73.16-6.17-2.28a22.88,22.88,0,0,1,0-7c1.31-13.91,8.2-21.06,23.16-24,1.56-.87,3.25-.45,4.88-.46H402.75c1.63,0,3.32-.37,4.89.42C418.17,170.86,426.72,175.33,429.55,186.79Z" transform="translate(-163.64 -166.75)" fill="#658bc7"/>
      <path id="Path_893" data-name="Path 893" d="M165.45,192.88l.38,6.9a11,11,0,0,1,1.46,5.63c0,9.33.17,18.66-.1,28,.13,5.7.16,11.39,0,17.08.13,5.34.17,10.67,0,16,.13,5.64.18,11.29,0,16.93.14,5.64.16,11.29,0,16.93.15,5.33.13,10.66,0,16,0,5.65.17,11.3,0,17q.24,8.54,0,17.07c.18,10.86.2,21.72,0,32.58.12,5.65.16,11.29,0,16.94.13,5.14.06,10.27,0,15.41-.19,2.22,0,4.47-.18,6.7a12.708,12.708,0,0,1-.23,2.38,4.12,4.12,0,0,1-.63,1.42.84.84,0,0,1-1.31.11q0-112.59,0-225.2C164.85,198.1,164.14,195.4,165.45,192.88Z" transform="translate(-163.64 -166.75)" fill="#bfbebe"/>
      <path id="Path_894" data-name="Path 894" d="M407.65,168.79c-.82.06-1.65.17-2.47.17H191.09c-.83,0-1.65-.1-2.48-.16,1.52-1.53,3.45-.9,5.19-.9H402.44C404.19,167.93,406.11,167.33,407.65,168.79Z" transform="translate(-163.64 -166.75)" fill="#abbfe3"/>
      <path id="Path_895" data-name="Path 895" d="M165.73,441v-7c2.56-1.46,5.12-.09,7.68,0,2.69,1,4.8,2.57,5.65,5.47a2.25,2.25,0,0,1-.85,1.44C174.06,442.82,169.9,443.29,165.73,441Z" transform="translate(-163.64 -166.75)" fill="#e0e0df"/>
      <path id="Path_896" data-name="Path 896" d="M165.73,441c4.33-.12,8.72.52,13-1,2.25-.25,3.2.78,3,3-5.21,1.52-10.38,3.3-15.94,2Z" transform="translate(-163.64 -166.75)" fill="#e2e2e1"/>
      <path id="Path_897" data-name="Path 897" d="M173.7,435a20.759,20.759,0,0,1-8-1c-.28-2.7-.57-5.4-.85-8.1a6.333,6.333,0,0,0,.87,0,1.16,1.16,0,0,1,1.25-.06c1.92,2.13,3.83,4.26,5.88,6.27a5.59,5.59,0,0,1,1.13,1.64,1.23,1.23,0,0,1-.28,1.25Z" transform="translate(-163.64 -166.75)" fill="#dedddd"/>
      <path id="Path_898" data-name="Path 898" d="M172.69,524.71l5,4-1,1a10.15,10.15,0,0,1-4-3.89c-.27-.25-.36-.5-.25-.73S172.59,524.71,172.69,524.71Z" transform="translate(-163.64 -166.75)" fill="#d2d2d2"/>
      <path id="Path_899" data-name="Path 899" d="M172.69,524.71a7.811,7.811,0,0,1-.05,1.08,10.9,10.9,0,0,1-3.9-4C170.76,521.79,171.82,523.13,172.69,524.71Z" transform="translate(-163.64 -166.75)" fill="#d5d5d5"/>
      <path id="Path_900" data-name="Path 900" d="M270.25,531.68v-1c.41-2.12,2.13-3.28,3.5-4.66q19-19.11,38.09-38.15c1.73-1.74,3.31-3.74,5.94-4.24,13-.44,26-.07,39-.22,1.92,0,4,.49,5.62-1.08a19.47,19.47,0,0,0,.1-12.94c-1.45-1.58-3.37-1-5.13-1.11-7.07-.25-14.16.45-21.21-.42-2.52-1.12-1.38-2.78-.27-3.91,4.75-4.8,8.88-10.27,14.71-13.94,3.8-1.08,7.81.2,11.58-1,2.32-1.9,1-4.5,1.27-6.76.21-1.74-.06-3.52.38-5.25s1.92-3.07,3.2-4.35C383.69,416,400.24,399.23,417,382.66a9.489,9.489,0,0,1,2.45-1.5c3.86-.85,6.73-4.5,11.09-4V446c-3,5.59-8.42,8.87-13,12.86a367.209,367.209,0,0,1-77,51.77,347.311,347.311,0,0,1-44.8,19.07c-2.83,1-5.84.93-8.62,2Z" transform="translate(-163.64 -166.75)" fill="#e0e0df"/>
      <path id="Path_901" data-name="Path 901" d="M287.17,531.68c9.2-3.59,18.45-7,27.6-10.79a370.138,370.138,0,0,0,82.75-47.32c11.48-8.64,21.94-18.46,33-27.61v66.8c.4,3.21-1.34,5.61-3.07,8-1.25,2-3.18,3.47-4.54,5.4a10.09,10.09,0,0,1-4.37,2.53,26,26,0,0,1-9.95,3Z" transform="translate(-163.64 -166.75)" fill="#dfdfde"/>
      <path id="Path_902" data-name="Path 902" d="M418.57,528.69l4-3c.91-.29,1.31-.06,1,.94l-4,3Z" transform="translate(-163.64 -166.75)" fill="#d0d0d0"/>
      <path id="Path_903" data-name="Path 903" d="M423.52,526.64l-1-.94a15.209,15.209,0,0,1,4.93-4.94C427.16,523.4,425,524.81,423.52,526.64Z" transform="translate(-163.64 -166.75)" fill="#d3d2d2"/>
      <path id="Path_904" data-name="Path 904" d="M419.57,382.16l-2,1c-1.26.77-2.36,2-3.89,2.07-6.57.27-10.61,4.55-14.83,8.84-12,12.25-24.23,24.35-36.38,36.48-1.62,1.62-3.06,3.51-5.33,4.35a17.76,17.76,0,0,1-8.42-.09c-2.51-2.19-.1-3.55,1-4.76,4-4.2,8-8.35,12.28-12.25a12.329,12.329,0,0,0,2.43-2.41c9.82-10.27,20.12-20.07,30-30.32,2.48-3,5.63-3.9,9.49-4.34,7.73-.87,14.61-4.52,21.36-8.25,1.66-.92,2.88-2.85,5.2-2.28v3C427.35,376.78,423.29,379.27,419.57,382.16Z" transform="translate(-163.64 -166.75)" fill="#dededd"/>
      <path id="Path_905" data-name="Path 905" d="M430.51,370.2c-5.11,4.27-11.16,6.62-17.18,9.3a28.55,28.55,0,0,1-12.6,2.7c-2.85-.06-3.78,3-6.05,3.95-2.92,1.78-6,1.76-9.16.79-1.07-1-.9-3.38-3.56-2.61a4.16,4.16,0,0,1-4.43-1.28c.21-2.16,1.51-2.71,3.46-2.49a32.761,32.761,0,0,0,5.86,0,21.881,21.881,0,0,1-6.27-.34c1.14-2.62,3.23-2.29,5.05-2.4,6.77-.4,13.45-1.51,20.17-2.28,7.79-.9,13.91-4.93,19.72-9.73,1.46-1.21,2.56-3.19,5-2.63v2Z" transform="translate(-163.64 -166.75)" fill="#dadada"/>
      <path id="Path_906" data-name="Path 906" d="M419.57,382.16a26.18,26.18,0,0,1,10.93-9v4C426.82,378.75,423.55,381.25,419.57,382.16Z" transform="translate(-163.64 -166.75)" fill="#dfdfde"/>
      <path id="Path_907" data-name="Path 907" d="M377.76,357.23c8.29-10.88,17.11-21.36,24.38-33a278.59,278.59,0,0,0,26.24-52.74c.51-1.41.82-2.87,2-3.91q.14,12.93.28,25.86l.06,43.93q-.54,3-1.06,5.92c.37.86-.16,1.61-.28,2.41a8.43,8.43,0,0,1-1.59,2.73,5.349,5.349,0,0,1-1.17.59c-3,1.69-5.14,4.42-8.14,6.05a36.8,36.8,0,0,1-7.53,3.15,14.27,14.27,0,0,1-3.32.38H383.78c-1.81,0-3.66.17-5.35-.74Z" transform="translate(-163.64 -166.75)" fill="#5a82c2"/>
      <path id="Path_908" data-name="Path 908" d="M430.49,354.25v6c-2.45,6.19-8.33,8.63-13.42,11.62-3.11,1.83-7,2.53-10.79,3.07-2.05-.39-3.94-.91-5.82.93-1.17,1.14-3.18.75-4.82.67-16.2-.74-32.35.66-48.51,1.15-8.4.25-16.79,1.45-25.19,2.16-3.51.3-6.91-.5-9.78-.2,1.37.88,3.93-.87,5.87.75-.5,1.95-2.17,2.1-3.56,2-4.54-.19-9,.73-13.58.72-6.15,0-12.87.57-18.73,3.67-9-.86-14.68,4.54-20,10.69a15.12,15.12,0,0,1-5.3,4.44,20.38,20.38,0,0,1-9.51,0c-2.81-2-.36-3.46.75-4.67,3.65-4,7.58-7.72,11.39-11.56a18.59,18.59,0,0,1,4-3.28,6.23,6.23,0,0,1,1.44-.42c4.69-.18,9.56.35,13.27-3.54a6.381,6.381,0,0,1,1.53-.5c3.27-.46,6.64.26,9.84-.9,9.27-1,18.61-.67,27.87-1.51,5.48-.5,11.17.19,16.41-2.18,3.91-1.27,8.07.08,12-1.22,6.6-.85,13.25,0,19.84-.49,11.71-.9,23.44.8,35.17-.82,10.84-1.5,20.06-5.42,26.59-14.56C428.13,355.29,428.85,354,430.49,354.25Z" transform="translate(-163.64 -166.75)" fill="#d4d4d4"/>
      <path id="Path_909" data-name="Path 909" d="M430.49,354.25c-7,11.38-17.2,17.05-30.43,18-18,1.32-36.1.71-54.16.93-6.86.73-13.79.61-20.61,1.82-3.42.33-6.84.89-10.3.52-1.83-.13-3.63-.78-5.5-.3a39.934,39.934,0,0,1-6.28.32c-3.85.3-7.82-1-11.52,1a4.42,4.42,0,0,1-1.6.52c-2.71,0-6.29,1.7-6.37-3.32,1.68-2.6,4.37-1.89,6.74-1.93,14.94-.26,29.86-1,44.76-2.1a19.933,19.933,0,0,0,2.41-.53,8.462,8.462,0,0,1,1.8-.3c8.26-.21,16.52-.05,24.78-.11a15.09,15.09,0,0,0,5.39-.6c3.86-.67,7.76-.44,11.64-.43,1.43.06,2.86.06,4.28.06,1.9,0,3.8-.05,5.69,0a46.56,46.56,0,0,0,21.27-3.07c8.64-3.53,14.51-9.86,16.19-19.44l1-2c1.69,2.15.47,4.67.89,7Z" transform="translate(-163.64 -166.75)" fill="#cfcfcf"/>
      <path id="Path_910" data-name="Path 910" d="M407.62,374.19a18.761,18.761,0,0,1,5.07-2.23c7.25-1.84,13-6.07,17.81-11.73v3c-2.53,2.11-5.1,4.18-7.58,6.35-7.7,6.74-17.26,7.66-26.79,8.57-4.74.45-9.39,1.81-14.26,1.83l7.32.41c-3.92,2.21-8.56-1.4-11.43,2.78a2.75,2.75,0,0,1-3.1,1c-5.44-2.76-10.58,1.39-16,.52-2-.31-3.54,1.59-5.38,2.25-2.13.37-3.71-.12-5.8-1.33-4.28-2.49-9.09-1.86-13.33,1.1a6.379,6.379,0,0,1-1.47.5,58.37,58.37,0,0,1-11.37.32c-2.84-.2-5.85.7-8.42-1.29a3.08,3.08,0,0,1,2.53-3.71c7.19-1.28,14.39-2.77,21.83-1.55-2.61-1-5.62.32-8.23-.83.19-1.95,1.74-1.75,2.61-1.75,8.41,0,16.74-2.21,25.22-.88,3.79.6,7.53-.79,11.35-.89,10.39-.28,20.79-.18,31.16-.93C402.23,375.52,404.74,373.87,407.62,374.19Z" transform="translate(-163.64 -166.75)" fill="#d8d8d8"/>
      <path id="Path_911" data-name="Path 911" d="M260.29,386.15l-13.93,14.91c-2.18,2.09-4.94,1.37-7.5,1.46-5.64.2-5.88.37-6,5.83a34.11,34.11,0,0,1-.34,6.39c-.48,2.05-2,3.39-3.38,4.79-10.27,10.29-20.51,20.61-30.86,30.82-1.48,1.47-2.73,4.1-5.69,2.59a58.732,58.732,0,0,1-10-10c17.44-17.84,35.16-35.4,52.85-53a19.05,19.05,0,0,1,6.15-4.14C247.88,384.48,254.12,383.47,260.29,386.15Z" transform="translate(-163.64 -166.75)" fill="#d3d4d4"/>
      <path id="Path_912" data-name="Path 912" d="M335,466.88h25.23c1.57,0,3.36-.61,4.58,1.06-3.94,2.58-8.37,1.13-12.57,1.45a39.567,39.567,0,0,1-6.44,0c-37.32.2-74.64.07-111.95.1-4.66-.07-6.22,4.3-9.28,6.52-1.83,1.33-2.9,4.32-6.05,2.84a128.531,128.531,0,0,1-14.93-15c.34-1.95,1.88-3,3.14-4.31,6.84-6.88,13.63-13.82,20.63-20.54,1.22-1.18,2.66-4.21,5-1,.76,2.39.54,4.86.5,7.3,0,2.87,1.18,4.13,4.08,4.17,3.24.06,6.53-.48,9.71.64,1.69,1.05,1,2.38.11,3.34a101.619,101.619,0,0,1-12.42,12.34c2.41-.43,5.71-.21,9-.33,3.48-.08,6.94-.18,10.42-.08,6.5-.12,13-.16,19.5-.06,6.88,0,13.76-.11,20.64,0,3.38.25,6.77-.14,10.15,0,3.65.14,7.31-.13,11,0,3.36.15,6.72-.16,10.08,0C328.37,465.79,332,464.41,335,466.88Z" transform="translate(-163.64 -166.75)" fill="#d7d6d6"/>
      <path id="Path_913" data-name="Path 913" d="M316,484.85Q295.17,506,274.3,527.1c-1.26,1.28-2.7,2.4-4.05,3.59a10.25,10.25,0,0,1-4-4c-1.33-1.9.09-3.16,1.19-4.28,12.32-12.47,24.66-24.92,37.18-37.19a5.69,5.69,0,0,1,2.58-1.44C310.23,483.59,313.32,482.66,316,484.85Z" transform="translate(-163.64 -166.75)" fill="#dfdfde"/>
      <path id="Path_914" data-name="Path 914" d="M231.42,437q-11.53,11.29-23.09,22.6c-1.53,1.5-3.18,2.88-4.78,4.31a15.389,15.389,0,0,1-5-5c.23-1.61,1.43-2.58,2.47-3.62q17.74-17.82,35.54-35.6a9,9,0,0,1,3.61-2.57,17.14,17.14,0,0,1,8.39.15c2.2,1.89.3,3.26-.78,4.38-4.18,4.33-8.27,8.77-12.85,12.68A19.059,19.059,0,0,0,231.42,437Z" transform="translate(-163.64 -166.75)" fill="#d6d6d5"/>
      <path id="Path_915" data-name="Path 915" d="M239.39,418.05q-19.8,21-40.81,40.86a21.511,21.511,0,0,1-6-6c2.3,0,3.36-1.92,4.73-3.27q17.07-16.77,34.09-33.62C234.05,416.82,237.05,416.12,239.39,418.05Z" transform="translate(-163.64 -166.75)" fill="#d4d4d4"/>
      <path id="Path_916" data-name="Path 916" d="M306.09,484.85Q287.8,503.39,269.54,522c-1.35,1.38-3.23,2.44-3.27,4.75a15.2,15.2,0,0,1-5-5c-1.23-1.63-.15-2.88.86-3.91,10.87-11.06,21.74-22.13,32.92-32.89a5.17,5.17,0,0,1,2.18-1.13C300.27,483.59,303.36,482.66,306.09,484.85Z" transform="translate(-163.64 -166.75)" fill="#dededd"/>
      <path id="Path_917" data-name="Path 917" d="M296.13,484.85q-15.79,16-31.57,32.13c-1.35,1.37-3.23,2.43-3.27,4.74a29.059,29.059,0,0,1-7-7c9.39-9.83,19.15-19.29,28.75-28.92a7.19,7.19,0,0,1,3.36-2.06C289.72,483.67,293.12,482.52,296.13,484.85Z" transform="translate(-163.64 -166.75)" fill="#dcdcdc"/>
      <path id="Path_918" data-name="Path 918" d="M240.38,387.14Q213.71,413.6,187,440.05c-1.26,1.25-2.28,2.92-4.39,2.92h-1a6.36,6.36,0,0,0-3-3v-1c6.67-3.82,12.05-9.17,17.4-14.6,10.59-10.73,21.31-21.33,31.92-32a62.152,62.152,0,0,1,8.84-7.21c1.6-1.11,3.24-2.49,5.43-1.3C243.35,385.93,241.32,386.22,240.38,387.14Z" transform="translate(-163.64 -166.75)" fill="#d1d1d1"/>
      <path id="Path_919" data-name="Path 919" d="M285.18,484.85q-14.3,14.52-28.62,29c-.51.52-1.48.6-2.24.88a15.521,15.521,0,0,1-5-5c7.71-8.16,15.82-15.92,23.73-23.88a7.1,7.1,0,0,1,3.33-2.08C279.39,483.6,282.48,482.66,285.18,484.85Z" transform="translate(-163.64 -166.75)" fill="#dbdbdb"/>
      <path id="Path_920" data-name="Path 920" d="M239.39,499.79a58,58,0,0,1-10-10,8.75,8.75,0,0,1,9-6.29c4.94.06,9.9-.52,14.81.4.77.37,1.73,1.08,1.17,1.81C250.21,491.25,246.31,497.15,239.39,499.79Z" transform="translate(-163.64 -166.75)" fill="#d9d9d9"/>
      <path id="Path_921" data-name="Path 921" d="M239.39,499.79a130.123,130.123,0,0,0,14.93-15c3.09-2.27,6.49-1.31,9.83-.95,2.12.93,1.46,2.41.43,3.54a237.683,237.683,0,0,1-17.09,17.1,2.2,2.2,0,0,1-3.12.24,15.289,15.289,0,0,1-4.98-4.93Z" transform="translate(-163.64 -166.75)" fill="#dadada"/>
      <path id="Path_922" data-name="Path 922" d="M265.27,484.84H254.32c-3.29,0-6.6.23-9.87-.06-5.8-.5-11.09.11-15,5a21.649,21.649,0,0,1-6-6c1.29-2.18,3.32-3.63,5.2-5.19,1.4-1.16,2.92-1.71,4,.53,1.33,3.48,4.36,3.06,7.13,3.07h49.64c9.6,0,19.19-.11,28.79.06q19.51-.19,39-.09c2.59,0,5.32-.39,7.56,1.51-1.39,1.78-3.36,1-5.08,1-14.55.07-29.1.05-43.65.05H275.22a9.42,9.42,0,0,1-5.88,1.39C267.88,486.09,266.36,486.09,265.27,484.84Z" transform="translate(-163.64 -166.75)" fill="#d8d8d8"/>
      <path id="Path_923" data-name="Path 923" d="M269.25,484.84h6c-7.87,8-15.72,16.06-23.64,24-.51.52-1.48.59-2.24.87a3.4,3.4,0,0,1-2-2,2,2,0,0,1,.45-2.29C254.79,498.43,261.09,490.66,269.25,484.84Z" transform="translate(-163.64 -166.75)" fill="#dadada"/>
      <path id="Path_924" data-name="Path 924" d="M231.42,477.86c-3.09,1.41-4.21,5.44-8,6a15.52,15.52,0,0,1-5-5c4.11-1.11,5.89-5,8.91-7.43,1.4-1.13,2.72-2.34,4.08-3.52a8.71,8.71,0,0,1,.01,9.95Z" transform="translate(-163.64 -166.75)" fill="#d8d8d8"/>
      <path id="Path_925" data-name="Path 925" d="M269.25,484.84q-9.17,9.42-18.31,18.85c-1.25,1.3-2.39,2.71-3.59,4.07a6.19,6.19,0,0,1-3-3c3-.3,4.29-2.9,6.1-4.69,5-5,9.88-10.15,14.8-15.24Z" transform="translate(-163.64 -166.75)" fill="#dbdbdb"/>
      <path id="Path_926" data-name="Path 926" d="M395.68,170.86c5.66,0,11.35-.42,16.92,1a243.8,243.8,0,0,1-18.15,95.76,238,238,0,0,1-37.85,62.6c-8,9.61-17.7,17.43-25.63,27-1.08,1.25-2.57,1.36-4,1.35-7,0-14,.31-21-.17-3.63-1.27-1.5-2.84-.1-4.14,4-3.71,8.4-6.93,12.58-10.44,13.62-11.45,25-24.88,35.5-39.17,4.06-4.61,6.53-10.23,9.68-15.43a219.33,219.33,0,0,0,28.74-82,174.42,174.42,0,0,0,2-30.2C394.26,174.88,394.06,172.65,395.68,170.86Z" transform="translate(-163.64 -166.75)" fill="#5c84c3"/>
      <path id="Path_927" data-name="Path 927" d="M304.1,357.23h73.66a1.19,1.19,0,0,1-.56,1.64c-2.17,1.07-4.52.74-6.8.74H238.89c-2.43,0-5,.53-7.18-1.21.6-3.61,3.62-2.65,5.71-2.67,11.91-.15,23.82-.19,35.73,0,8.12.11,16.24-.21,24.36,0C299.81,355.72,302.23,355.37,304.1,357.23Z" transform="translate(-163.64 -166.75)" fill="#527cbe"/>
      <path id="Path_928" data-name="Path 928" d="M165.83,233.63V199.78c14.16,4.59,30.54-7.15,30.75-22.11.1-7.39-.83-6.82,7.05-6.83h26.81c1.61,1.79,1.37,4,1.29,6.14a60.22,60.22,0,0,1-49.89,57.4C176.55,235.3,171.05,236.13,165.83,233.63Z" transform="translate(-163.64 -166.75)" fill="#6389c6"/>
      <path id="Path_929" data-name="Path 929" d="M165.83,266.53V250.58c1.78-1.65,4-1.29,6.12-1.31,37.36-.47,67.28-26.71,72.79-63.85a75.9,75.9,0,0,0,.3-8.92c.06-2-.2-4,1.32-5.64h16.92c1.6,1.78,1.39,4,1.37,6.13a90.7,90.7,0,0,1-13.38,46.61,10.25,10.25,0,0,1-3.19,3.73c-3.52,1.34-7.19.74-10.79.77-3.16,0-4.4,1.38-4.42,4.5,0,4.12.48,8.27-.5,12.35-3.36,5.25-8.8,7.94-13.86,11-14,8.35-29.3,12.1-45.43,12.89C170.43,268.93,167.71,269,165.83,266.53Z" transform="translate(-163.64 -166.75)" fill="#6289c6"/>
      <path id="Path_930" data-name="Path 930" d="M345.91,170.86h33.84c1.92,2.28,1.51,5,1.38,7.63-.91,17.74-2.89,35.32-7.67,52.51q-2.26,8.15-5.27,16.05c-.59,1.56-.86,4.16-3.8,3.21-2.07-4.61-.93-9.47-1.05-14.22-.21-7.83-.07-7.68-8.09-7.91-5.4-.15-10.91,1.09-16.19-1-1.62-1.76-.93-3.71-.44-5.61,3.71-14.61,6.29-29.37,5.83-44.53C344.38,174.83,344.32,172.63,345.91,170.86Z" transform="translate(-163.64 -166.75)" fill="#5d85c4"/>
      <path id="Path_931" data-name="Path 931" d="M246.36,170.86a73.78,73.78,0,0,1-16.57,52.19c-11.81,14.76-27.33,23-45.68,26.56-6.07,1.16-12.18.92-18.28,1v-17c14.4.87,28-1.5,39.79-10.45,13.32-10.1,21.87-23,23.95-40a107.994,107.994,0,0,0,.86-12.3Z" transform="translate(-163.64 -166.75)" fill="#628ac7"/>
      <path id="Path_932" data-name="Path 932" d="M364.84,250.58c4.44-8,6.54-16.81,8.59-25.57,3-12.61,5.25-25.33,5.51-38.42.1-5.21.81-10.46.81-15.73h15.93A215.241,215.241,0,0,1,384,248.22a227.431,227.431,0,0,1-18.13,40.15,11.94,11.94,0,0,1-2,2.08,4.32,4.32,0,0,1-1-3.68c.92-9.88.22-19.78.48-29.66C363.33,254.84,363,252.43,364.84,250.58Z" transform="translate(-163.64 -166.75)" fill="#5d84c3"/>
      <path id="Path_933" data-name="Path 933" d="M313.06,170.86H330c1.7,1.94,1.55,4.33,1.41,6.61-.88,14.72-2.49,29.33-6.85,43.5-.72,2.34-1.26,4.85-3.57,6.33-2.33,1.08-4.84.8-7.3.85-5.77.14-6,.37-6.09,6.32-.16,7.92.41,15.85-.33,23.76-3.24,7.55-8.62,13.64-13.77,19.86-1,1.22-2.68,3.05-4.26.24a129.787,129.787,0,0,1-.16-24.93c2.21-5.74,5.71-10.83,8.38-16.36a142.621,142.621,0,0,0,14.25-59.53C311.74,175.22,311.32,172.81,313.06,170.86Z" transform="translate(-163.64 -166.75)" fill="#6086c5"/>
      <path id="Path_934" data-name="Path 934" d="M313.06,170.86c.63,29.55-6.79,56.85-22.88,81.71-1.76-1.7-1.44-3.94-1.48-6-.09-4.29-.07-8.58,0-12.87,0-2.6-.49-4.9-2.61-6.61-1.36-2.53-.11-4.85.74-7.1,5.2-13.87,8.16-28.13,7.91-43,0-2.13-.18-4.33,1.41-6.1Z" transform="translate(-163.64 -166.75)" fill="#6088c5"/>
      <path id="Path_935" data-name="Path 935" d="M248.35,226.49a112.42,112.42,0,0,0,13.24-32.94c1.64-7.54,1.71-15.09,1.69-22.69h16.93c1.7,2,1.47,4.35,1.35,6.64-.78,14.87-3.57,29.3-9.77,42.93-1.22,2.68-2.12,5.66-5.1,7.12C260.53,228.07,254.3,229.69,248.35,226.49Z" transform="translate(-163.64 -166.75)" fill="#6188c6"/>
      <path id="Path_936" data-name="Path 936" d="M267.26,226.49c9.39-17.36,12.92-36.09,12.95-55.63h15.92c1.2,19.35-3.15,37.71-9.95,55.63a22.58,22.58,0,0,1-18.92,0Z" transform="translate(-163.64 -166.75)" fill="#6187c5"/>
      <path id="Path_937" data-name="Path 937" d="M321,226.49a134.11,134.11,0,0,0,8-38.9c.35-5.58,1.34-11.11,1-16.73h15.93c.95,19-2,37.42-7,55.63a20.77,20.77,0,0,1-17.93,0Z" transform="translate(-163.64 -166.75)" fill="#5f86c5"/>
      <path id="Path_938" data-name="Path 938" d="M273.24,357.24H236.56c-1.73,0-3.67-.66-5.14,1a3.711,3.711,0,0,1-.14.71c-6.2,7.43-13.41,13.89-20.25,20.7a7.48,7.48,0,0,1-3.93,2c-12.26,2.78-24.7,3.4-37.21,3a5.9,5.9,0,0,1-4.09-1.42V350.27c2.11-1.86,4.69-1.3,7.13-1.34A174.819,174.819,0,0,0,237.28,336a171.63,171.63,0,0,0,65.81-47.57c2.45-2.87,5.13-4.41,9-4.35,7.61.11,15.23,0,22.85,0a8.9,8.9,0,0,1,4.81.9c2.07,1.95,1.58,4.54,1.69,7,.29,6.08-.6,12.2.69,18.22.38,1.56,0,2.68-1.82,2.66-1.41,0-2-1.06-2.24-2.26a28.131,28.131,0,0,1-.08-8.29A214.94,214.94,0,0,1,279.23,355C277.34,356.17,275.1,356.15,273.24,357.24Z" transform="translate(-163.64 -166.75)" fill="#5d85c4"/>
      <path id="Path_939" data-name="Path 939" d="M338.93,285.47c-9.28,0-18.55.07-27.83,0a7.07,7.07,0,0,0-6.07,2.62c-23.89,28.8-54.33,47.39-90.26,56.88a170.57,170.57,0,0,1-49,5.34V333.36c1.78-1.65,4-1.36,6.13-1.33,31.42.39,60-8.72,86.22-25.77,4.6-3,4.62-3,8.93,1.59,11.4-2.83,17.88-10.38,20.71-21.47.6-2.35.5-4.94,2.37-6.85,6.63-5.58,10.41-13.44,15.88-19.94,2.74,3.69,1.43,8,1.52,12,.29,12.67-1.34,11.3,11.39,11.4,4.93,0,9.87-.14,14.8.09C335.72,283.1,338.25,282.49,338.93,285.47Z" transform="translate(-163.64 -166.75)" fill="#5f86c5"/>
      <path id="Path_940" data-name="Path 940" d="M267.26,309.5c-1.72,1.4-3,.88-2.9-1.21.15-5.69-2.58-2.94-4.57-1.58a156.5,156.5,0,0,1-53.25,23.1,152.655,152.655,0,0,1-40.72,3.51V316.4c8.35-.79,16.75-1,25.07-2.13A138.23,138.23,0,0,0,255.36,288c2.85-2.11,5.63-5,9.78-2.87,1.86,1.85,1.55,4.26,1.6,6.54C266.88,297.63,266.48,303.58,267.26,309.5Z" transform="translate(-163.64 -166.75)" fill="#6086c5"/>
      <path id="Path_941" data-name="Path 941" d="M264.27,285.47c-2.54-.49-4.52.8-6.34,2.21a139.28,139.28,0,0,1-61.35,27.16c-8.74,1.61-17.62,2-26.48,2.53a7.65,7.65,0,0,1-4.29-1v-16c1.31-1.25,3-1.37,4.63-1.36a128.83,128.83,0,0,0,61.8-15.65c9.42-1,18.87-.45,28.3-.33C262.08,283.1,264,283.17,264.27,285.47Z" transform="translate(-163.64 -166.75)" fill="#6088c5"/>
      <path id="Path_942" data-name="Path 942" d="M165.83,266.53c8.78,2.14,17.34,0,25.85-1.6,14.95-2.8,27.76-10.25,39.72-19.34,2.94,6.63,1.52,13.45.91,20.24-5.31,6.09-12.84,8.51-19.88,11.46a95,95,0,0,1-41,7.57c-2-.08-4,.12-5.6-1.38Z" transform="translate(-163.64 -166.75)" fill="#6188c6"/>
      <path id="Path_943" data-name="Path 943" d="M165.83,283.48c18.66.9,36.52-2.16,53.28-10.73,4.09-2.09,8.19-4.15,12.29-6.22a23.12,23.12,0,0,1,.1,17.76c-4.28,4.76-10.42,6.08-16,8.17a126.75,126.75,0,0,1-49.71,8Q165.83,291.94,165.83,283.48Z" transform="translate(-163.64 -166.75)" fill="#6187c5"/>
      <path id="Path_944" data-name="Path 944" d="M166.68,426.08a5,5,0,0,1-.94-.15q0-.435,0-.87c1.72-3.68,4.94-6.07,7.67-8.87,5.85-6,11.83-11.82,17.68-17.81,12-12.35,24.95-23.77,36.89-36.19,1.5-1.56,2.95-3.22,5.46-2.94h77.84a32.172,32.172,0,0,0,6.43-.25,36.69,36.69,0,0,1,8.38-.06c16.94.68,33.89.19,50.84.25a5.6,5.6,0,0,0,2.36-.65c8.81-.8,17.65.21,26.47-.26,2.12-.12,4.27.06,6.3-.73,2.55-.3,4.72-1.56,6.92-2.76,1.32-1,2.4-2.59,4.45-1.8a1.52,1.52,0,0,1,.43,1.36,13.32,13.32,0,0,1-4.67,5c-4.53,3-9.71,3.61-14.9,4.29-19.48.11-39,0-58.43.06-31.37-.23-62.73.38-94.08.14-2.61-.23-5.27.06-7.85-.29-7.92-1.07-13.95,2.25-19.16,7.73-9,8.6-17.67,17.6-26.51,26.39-4.74,4.57-9.33,9.29-14,14a70.505,70.505,0,0,1-8.86,7.87c-1.12,1-2.16,2-3.2,3.07s-2.09,2.11-3.21,3.09C168.32,426.07,167.61,426.66,166.68,426.08Z" transform="translate(-163.64 -166.75)" fill="#b8b8b9"/>
      <path id="Path_945" data-name="Path 945" d="M165.8,383.16a200,200,0,0,0,42.73-3c.55,1.91-1.17,2.57-2.11,3.52-5,5.05-9.93,10.12-15,15a6.38,6.38,0,0,1-2.77,1.62c-7.62,1.45-15.23,2.58-22.81-.24Z" transform="translate(-163.64 -166.75)" fill="#5d84c3"/>
      <path id="Path_946" data-name="Path 946" d="M165.79,400.1c8-.09,15.93.49,23.83-1,.16.31.3.7.11.9-5.86,6.31-11.49,12.85-18.47,18-2.16.3-4.24.39-5.46-2Z" transform="translate(-163.64 -166.75)" fill="#5c84c3"/>
      <path id="Path_947" data-name="Path 947" d="M171.7,417.05a189.645,189.645,0,0,0,17.92-17.94l2-1a.83.83,0,0,1,.34.81c-.07.29-.15.44-.23.44-8.4,8.82-16.81,17.64-26,25.71,0-.68,0-1.35.05-2a12.19,12.19,0,0,1,5.92-6.02Z" transform="translate(-163.64 -166.75)" fill="#517cbe"/>
      <path id="Path_948" data-name="Path 948" d="M171.7,417.05a23.42,23.42,0,0,1-5.89,6q0-3.465,0-6.95C167.63,417.27,169.68,417.05,171.7,417.05Z" transform="translate(-163.64 -166.75)" fill="#5c83c2"/>
      <path id="Path_949" data-name="Path 949" d="M242.38,384.15c-5.45.77-9,4.73-12.53,8.2-13.37,13-26.4,26.44-39.72,39.54-3.22,3.16-6.37,6.8-11.46,7.09l-5-4v-1c15.6-9,27-22.71,39.63-35,4.51-4.38,8.43-9.33,12.79-13.88,5.42-5.66,11.72-9.18,19.48-9.89a26.209,26.209,0,0,0,8.09-2.17c9,.07,18-1.17,26.93-.25a5.28,5.28,0,0,1,3.58,1.37c1.48,3.65,4.65,1.34,7,2-.65,2.7-3,1.56-4.61,1.9s-3.5,0-5.25.19a4.57,4.57,0,0,0-2.08.9h-1c-3.24,2.12-6.9,1.34-10.42,1.49-4.9-.2-9.81,0-14.72-.08-2.89,0-5.54.55-7.59,2.78C244.55,384,243.59,384.62,242.38,384.15Z" transform="translate(-163.64 -166.75)" fill="#d0d0d0"/>
      <path id="Path_950" data-name="Path 950" d="M166.68,426.08l2-1.06c6.9,1.28,12.22-1.57,16.94-6.28,12.8-12.79,25.68-25.5,38.32-38.45,5.95-6.1,12.63-10.06,21.33-10.13,8.28-.07,16.48-1.73,24.8-1.26a18.16,18.16,0,0,0,7.39-.67,8.771,8.771,0,0,1,1.61-.29c3.39-.17,6.78-.07,10.16-.13,10.08.77,20.11-1.19,30.18-.56a8.651,8.651,0,0,1,1.68-.27c3.34-.33,6.77.35,10.06-.82a10.494,10.494,0,0,1,1.77-.26c11.07-.18,22.14,0,33.2-.1,2.14,0,4.31.19,6.38-.59,3.9-.67,7.83-.26,11.75-.39h10.53c2.87.26,5.89-.64,8.6,1,.39,3.21-2.27,2-3.58,2.24-2.67.58-5.59-.57-8.13,1.12h-6c-1.32-1.58-2.65-.91-4,0H369.8c-8.34,1.1-16.71.15-25.06.5-1.94.09-3.94-.51-5.8.5h-1c-8.69.46-17.34,1.57-26.09,1.08-7.94-.44-15.88.53-23.77,1.13-8.08.62-16.14.66-24.2.65-6,0-11.82,1.18-17.73,1.63-9.14.73-16,5.69-22.12,12-8.21,8.41-16.83,16.44-24.81,25.06-4.57,5-8.67,10.32-14,14.53A35.37,35.37,0,0,1,172.69,433C170.3,431,167.53,429.39,166.68,426.08Z" transform="translate(-163.64 -166.75)" fill="#cac9c9"/>
      <path id="Path_951" data-name="Path 951" d="M172.69,433c6.9-4.49,14.91-7.87,19.81-14.6,9.51-13.05,22.07-23.06,33-34.66,5-5.32,10.89-9.73,18.87-9.56a13.75,13.75,0,0,1,8,0c-2.52,3.69-6.7,1.93-10,2.75-5.19,1.27-9.61,3.36-13.26,7.12-9.32,9.59-18.5,19.34-27.91,28.84-5.33,5.4-11,10.5-16.57,15.61a21.47,21.47,0,0,1-10.9,5.49Z" transform="translate(-163.64 -166.75)" fill="#ccc"/>
      <path id="Path_952" data-name="Path 952" d="M363.82,450.85l-13.95.16c-3.09,1.89-6.52,1.38-9.88,1.42-3.33-.14-6.67.14-10,0-3.65-.11-7.3.14-10.95,0-3.38-.14-6.76.19-10.14,0-6.87.06-13.73.14-20.59,0-6.53-.28-13.09.57-19.6-.45a3.87,3.87,0,0,1-1.56-1c.32-2.75,2.76-3.13,4.64-3.83a269.547,269.547,0,0,0,27.39-11.83,17.6,17.6,0,0,1,8.16-1.77c11.78,0,23.55-.2,35.32.1,6.07.16,12.09,1.44,18.22.19,1.88-.39,3.59.6,3.43,3.12C364,441.62,364.87,446.27,363.82,450.85Z" transform="translate(-163.64 -166.75)" fill="#b7b8b8"/>
      <path id="Path_953" data-name="Path 953" d="M363.82,450.85c0-4-.15-8,.05-12,.16-3.13-1.14-4-4.08-3.95-18.08.09-36.16,0-54.24.07a7.44,7.44,0,0,0-3.38.54c-11.22,6.07-23.3,10.15-34.91,15.33-3,2.5-6.59,1.26-9.94,1.54-3.34-.4-6.94,1-10-1.44-4.24,0-8.49-.1-12.73,0-2.29,0-3.23-.89-3.18-3.19.08-3.59,0-7.19,0-10.78-.19-2.2.8-3.19,3-3,3-2,6.42-1.4,9.72-1.5,2.68.2,5.36-.07,8,0,1.21.1,2.41,0,3.62.06,6.45-.27,12.9.15,19.34-.09,3.72.15,7.44-.19,11.16,0,6.58,0,13.17-.16,19.75,0,6.9,0,13.79-.12,20.69,0,3.41.24,6.82-.17,10.23,0,3.65.47,7.58-1.14,10.94,1.49h10c5-2,6.19-1.69,7,2C364.22,440.92,366,446,363.82,450.85Z" transform="translate(-163.64 -166.75)" fill="#b8b9b9"/>
      <path id="Path_954" data-name="Path 954" d="M364.77,483.76l-46.73.06c-.38-1.53.79-2.14,1.77-2.6,8.87-4.11,16.91-9.83,26.09-13.31l18.87.06Z" transform="translate(-163.64 -166.75)" fill="#b6b7b7"/>
      <path id="Path_955" data-name="Path 955" d="M364.83,436c-1.47-3.68-4.68-1.22-7-2q15.09-15.36,30.19-30.72c2.44-2.47,5.1-4.75,7.32-7.4,5.87-7,12.57-12.4,22.22-12.71-7,7.19-14,14.46-21.08,21.56C386,415.21,375.39,425.57,364.83,436Z" transform="translate(-163.64 -166.75)" fill="#dfdfde"/>
      <path id="Path_956" data-name="Path 956" d="M339.91,451h10L335,466.88H325a1.88,1.88,0,0,1,.42-2.24C330.05,459.88,334.13,454.54,339.91,451Z" transform="translate(-163.64 -166.75)" fill="#dfdfde"/>
      <path id="Path_957" data-name="Path 957" d="M239.39,418.05c-2.6-.88-6.13,2-8-2,.48-4.81-2.1-11,1.18-14.1,3-2.84,9.06-.53,13.76-.89h11c3-1.9,6.31-1.34,9.55-1.43,1.45.13,2.9,0,4.35.09,2,0,4-.09,6-.06,2.58.11,5.16-.06,7.75,0,1.16.08,2.32,0,3.48,0,3.24,0,6.48-.14,9.73-.06s6.59-.14,9.88,0c3.63.1,7.25-.14,10.88,0,3.33.14,6.66-.14,10,0s6.67-.17,10,0c5.05.32,10.16-.76,15.15.71,2.3,2.43-.29,3.47-1.51,4.61-4.23,3.92-9.14,7-14.32,10.79,7.13-.06,13.67-.05,20.22,0,3.05,0,3.82-1.62,4-4.37.26-3.49-1.31-7.31,1.57-10.41,2.15.76,1.85,2.73,2.18,4.4-.07,3.64.69,7.39-1.44,10.75a1.91,1.91,0,0,1-2,2c-3.4,2.15-7.2,1.37-10.89,1.48-3.39-.15-6.78.19-10.18,0-6.86.06-13.72.13-20.58,0-6.48-.07-12.95.08-19.43,0-.9-.07-1.81-.11-2.71-.12-3-.12-5.95.16-8.92.06-3.26-.09-6.52.11-9.78,0s-6.48.07-9.72,0c-1.17-.1-2.35-.06-3.53-.07-2.67,0-5.34.17-8,.05-3.26-.34-6.77,1-9.73-1.45Z" transform="translate(-163.64 -166.75)" fill="#b8b8b9"/>
      <path id="Path_958" data-name="Path 958" d="M364.83,416.05v-11c5.24-7.35,12-13.23,18.61-19.22a1.3,1.3,0,0,1,1.29.28h9.95Q380.37,401.72,364.83,416.05Z" transform="translate(-163.64 -166.75)" fill="#dcdcdc"/>
      <path id="Path_959" data-name="Path 959" d="M351.87,418.05h10.95L347.9,434H337a1.86,1.86,0,0,1,.41-2.24C342,427,346.12,421.64,351.87,418.05Z" transform="translate(-163.64 -166.75)" fill="#dcdcdc"/>
      <path id="Path_960" data-name="Path 960" d="M384.73,386.15h-1c-.26.2-.55.51-.83.49-8.81-.61-13.23,6.05-18.55,11.21-1.52,1.48-2.86,3.2-4.91,4-1.64.42-3.24.58-4.59-.75l-15.9-.1c-.58-1.55.47-2.52,1.37-3.38,4.11-3.92,7.52-8.61,12.55-11.52a10.68,10.68,0,0,1,9-3c2.4.21,4.92.49,7.11-1.32a2.08,2.08,0,0,1,3.36.37c1.41,2,3.63.6,5.44,1,1.95,0,3.9.1,5.84,0C387.48,382.89,385.45,384.74,384.73,386.15Z" transform="translate(-163.64 -166.75)" fill="#dadada"/>
      <path id="Path_961" data-name="Path 961" d="M391.7,369.2c1-2.27,3.08-1.85,5-2,2.32-.22,4.86.94,6.95-1,.86-2.29,3.1-2.26,4.91-2.75a29,29,0,0,0,11-5.24,10.56,10.56,0,0,1,4-4,25.479,25.479,0,0,1,3.91-6.17c.4-.92.8-1.84,1.21-2.76,1.6,7.76-3.88,12.07-8.5,16.43-6.22,5.88-14.51,6.46-22.52,7.42a51.335,51.335,0,0,1-5.96.07Z" transform="translate(-163.64 -166.75)" fill="#cbcbcb"/>
      <path id="Path_962" data-name="Path 962" d="M413.57,358.16c-11.15,2.74-22.45.92-33.69,1.16-9,.88-18,.26-27.06.37q-12.07.15-24.17,0a.9.9,0,0,1-.66-1.42h49.77c8.33-1.1,16.7-.16,25.05-.51,1.94-.08,3.94.52,5.81-.49h3C412.67,356.65,413.62,356.34,413.57,358.16Z" transform="translate(-163.64 -166.75)" fill="#4c78bc"/>
      <path id="Path_963" data-name="Path 963" d="M408.62,357.24c-1.64,1.71-3.74.94-5.63,1-8.41.08-16.82,0-25.23,0v-1Z" transform="translate(-163.64 -166.75)" fill="#4f79bc"/>
      <path id="Path_964" data-name="Path 964" d="M423.45,353l-3.88,2.25a1.2,1.2,0,0,1-1-1c2.71-1.92,4.35-5.27,8-5.93C426.36,350.44,425.53,352.13,423.45,353Z" transform="translate(-163.64 -166.75)" fill="#547dbd"/>
      <path id="Path_965" data-name="Path 965" d="M418.56,354.24l1,1a10.72,10.72,0,0,1-6,2.91,2.1,2.1,0,0,0-2-.93,23.5,23.5,0,0,1,7-2.98Z" transform="translate(-163.64 -166.75)" fill="#4f79bc"/>
      <path id="Path_966" data-name="Path 966" d="M423.45,353c1-1.56,2.07-3.12,3.1-4.69l.91-.23a7.25,7.25,0,0,1-3.91,6.17C423.52,353.83,423.48,353.42,423.45,353Z" transform="translate(-163.64 -166.75)" fill="#c6c6c6"/>
      <path id="Path_967" data-name="Path 967" d="M288.18,401.05h-3c-.47-2.86,2-3.93,3.47-5.55,2.31-2.56,4.85-4.9,7.5-7.58-3.45-1.51-5.35,1.32-7.82,2-4.38-.61-7.56,1.38-10.37,4.53a63.289,63.289,0,0,1-6.72,6.58h-4a2.23,2.23,0,0,1,.72-2.64c4.26-4.24,7.92-9.13,13.2-12.27a10.51,10.51,0,0,1,9-3,10,10,0,0,0,5.73-1c2.5-1.25,5.42-2.25,7.88.53.26.28,1.1.48,1.32.3,3.56-3,8-1.12,11.91-2.56l-6.65-.37a69.678,69.678,0,0,1,12-1.65c12.49-.75,24.91-2.58,37.49-2.31,6.19.13,12.64-2.42,18.56-1.4,6.82,1.17,13.46.42,20.07.19,2.92-.1,5.86-2.53,9.14-.65-5.09,3.7-11.19,1.86-16.77,2.76-10.6,1.69-21.56,1.86-32.19,1.68-9.55-.16-19,.92-28.5,1.43h7.72c-6.81-.49-12.89,3.8-19.62,3.1a4.89,4.89,0,0,0-5.21,3,3,3,0,0,1-1.18.86c-7.18-.78-12.16,2.84-16.5,8A20.51,20.51,0,0,1,288.18,401.05Z" transform="translate(-163.64 -166.75)" fill="#d7d6d6"/>
      <path id="Path_968" data-name="Path 968" d="M281.2,386.15l-13.92,14.91h-10c4.33-4.48,8.54-9.08,13-13.41C273.46,384.63,277.58,386.72,281.2,386.15Z" transform="translate(-163.64 -166.75)" fill="#d6d6d5"/>
      <path id="Path_969" data-name="Path 969" d="M280.2,378.17c3.3-2.63,7.66.65,10.95-2,2-1.64,4.45-.81,6.71-1,1.79-.13,3.66.22,5.24-1h7c1.32-.51,2.65,1.77,4,0H325a17.78,17.78,0,0,1,9,0,3.48,3.48,0,0,1-3.65,2c-8.66-.27-17.16,2-25.93,1.19-5-.46-10.09,1.18-15.22.8a17.67,17.67,0,0,1-9,.01Z" transform="translate(-163.64 -166.75)" fill="#d0d0d0"/>
      <path id="Path_970" data-name="Path 970" d="M244.37,383.16c1.64-3.08,4.15-4.22,7.67-4.05,5.06.24,10.15.06,15.22.06.74,2.63-1.74,2.84-3,4h-1C257,385.32,250.67,385.64,244.37,383.16Z" transform="translate(-163.64 -166.75)" fill="#d1d1d1"/>
      <path id="Path_971" data-name="Path 971" d="M244.37,383.16h18.91a6.25,6.25,0,0,1-3,3c-6.64.17-13.33-.6-19.91,1l2-3Z" transform="translate(-163.64 -166.75)" fill="#d2d2d2"/>
      <path id="Path_972" data-name="Path 972" d="M264.28,383.16l3-4h10.95C275,385.4,269.11,382.5,264.28,383.16Z" transform="translate(-163.64 -166.75)" fill="#d2d2d2"/>
      <path id="Path_973" data-name="Path 973" d="M334,374.19h-9c4.87-2.19,10-.48,15-1,1.95-.19,3.94,0,5.91,0C342.07,375.27,337.93,373.68,334,374.19Z" transform="translate(-163.64 -166.75)" fill="#d0d0d0"/>
      <path id="Path_974" data-name="Path 974" d="M280.2,378.17h9c-3.15,2-6.65.55-10,1Z" transform="translate(-163.64 -166.75)" fill="#d2d2d2"/>
      <path id="Path_975" data-name="Path 975" d="M299.2,379.37h6.29C303.1,380.75,301.19,379.77,299.2,379.37Z" transform="translate(-163.64 -166.75)" fill="#d6d6d5"/>
      <path id="Path_976" data-name="Path 976" d="M252.33,374.19h-8c3.94-2.05,8.51-1.75,12.48-1.72,16.89.15,33.66-1.56,50.49-2.2,10.18-.39,20.4-.07,30.6-.07-4.8,1.89-9.95,1.48-14.89,1.83-11.71.83-23.48.82-35.22,1.16-1.29,0-2.68-.25-3.65,1Z" transform="translate(-163.64 -166.75)" fill="#cbcbcb"/>
      <path id="Path_977" data-name="Path 977" d="M338.94,370.2c1.63-1.72,3.73-.94,5.62-1,8.41-.09,16.82,0,25.24,0-1.64,1.72-3.74.94-5.63,1C355.76,370.25,347.35,370.2,338.94,370.2Z" transform="translate(-163.64 -166.75)" fill="#cbcbcb"/>
      <path id="Path_978" data-name="Path 978" d="M303.1,374.19c-3.42,4-8,1.08-12,2,.58-3,3-1.84,4.69-1.95C298.25,374.07,300.68,374.19,303.1,374.19Z" transform="translate(-163.64 -166.75)" fill="#d0d0d0"/>
      <path id="Path_979" data-name="Path 979" d="M381.74,369.2a3,3,0,0,1,3.57-1.91c1.29.25.56,1.2.41,1.91Z" transform="translate(-163.64 -166.75)" fill="#cbcbcb"/>
      <path id="Path_980" data-name="Path 980" d="M314.05,374.19c-1.33,2.2-2.66,3-4,0C311.39,372.39,312.72,374.55,314.05,374.19Z" transform="translate(-163.64 -166.75)" fill="#d0d0d0"/>
      <path id="Path_981" data-name="Path 981" d="M329,401.05H319c-.58-1.55.47-2.52,1.37-3.38,4.11-3.92,7.52-8.61,12.55-11.52h1c3-2,6.35-1.23,9.6-1.2,1.27,0,2.85,0,3.3,1.55s-.74,2.48-1.77,3.27C339.86,393.72,335.11,398.36,329,401.05Z" transform="translate(-163.64 -166.75)" fill="#dadada"/>
      <path id="Path_982" data-name="Path 982" d="M333,386.15l-14,14.9H308c-.58-1.54.47-2.52,1.37-3.38,4.11-3.92,7.52-8.61,12.55-11.52Z" transform="translate(-163.64 -166.75)" fill="#d9dad9"/>
      <path id="Path_983" data-name="Path 983" d="M329,401.05c4.46-4.61,10-7.84,14.93-11.88a6.08,6.08,0,0,0,2.51-3H334c1.94-2.23,14.54-4.41,14.61-2.81.17,3.84,2.42,2.64,4.3,2.81L339,401.05Z" transform="translate(-163.64 -166.75)" fill="#d9dad9"/>
      <path id="Path_984" data-name="Path 984" d="M322,386.15l-13.92,14.9h-9.95c-.59-1.54.47-2.52,1.37-3.38,4.1-3.92,7.52-8.61,12.55-11.52Z" transform="translate(-163.64 -166.75)" fill="#d8d8d8"/>
      <path id="Path_985" data-name="Path 985" d="M345.9,467.91c-7.12,5.15-15,8.91-22.79,12.91-1.74.9-3.74,1.4-5.07,3-26.92,0-53.84-.1-80.76.16-4.91,0-6.57-1.51-5.86-6.12q0-5,.05-10Z" transform="translate(-163.64 -166.75)" fill="#b7b8b8"/>
      <path id="Path_986" data-name="Path 986" d="M288.15,451h20.91a2,2,0,0,1-.45,2.24c-4.62,4.76-8.73,10.07-14.46,13.64H273.24a1.85,1.85,0,0,1,.41-2.23C278.28,459.88,282.37,454.54,288.15,451Z" transform="translate(-163.64 -166.75)" fill="#dadada"/>
      <path id="Path_987" data-name="Path 987" d="M288.15,451l-14.91,15.89H253.33a1.85,1.85,0,0,1,.41-2.23c4.63-4.77,8.72-10.11,14.5-13.66Z" transform="translate(-163.64 -166.75)" fill="#d9dada"/>
      <path id="Path_988" data-name="Path 988" d="M268.24,451l-14.91,15.89h-11a1.85,1.85,0,0,1,.41-2.23c4.63-4.77,8.73-10.11,14.5-13.66l10-.1Z" transform="translate(-163.64 -166.75)" fill="#d8d8d8"/>
      <path id="Path_989" data-name="Path 989" d="M319,451h11a2,2,0,0,1-.45,2.24c-4.62,4.76-8.73,10.07-14.46,13.64H304.1a1.85,1.85,0,0,1,.41-2.23C309.14,459.88,313.23,454.54,319,451Z" transform="translate(-163.64 -166.75)" fill="#dcdcdc"/>
      <path id="Path_990" data-name="Path 990" d="M257.29,451l-14.91,15.89h-10.1L247.34,451Z" transform="translate(-163.64 -166.75)" fill="#d7d8d8"/>
      <path id="Path_991" data-name="Path 991" d="M319,451l-14.9,15.88h-10q7.47-7.94,14.92-15.88Z" transform="translate(-163.64 -166.75)" fill="#dbdbdb"/>
      <path id="Path_992" data-name="Path 992" d="M315.05,466.88,330,451h10l-15,15.88Z" transform="translate(-163.64 -166.75)" fill="#dededd"/>
      <path id="Path_993" data-name="Path 993" d="M249.34,418.05h10a1.87,1.87,0,0,1-.41,2.24c-4.63,4.79-8.77,10.11-14.52,13.7h-10Q241.88,426,249.34,418.05Z" transform="translate(-163.64 -166.75)" fill="#d7d6d6"/>
      <path id="Path_994" data-name="Path 994" d="M338.93,285.47c-6.65-1.81-13.42-.61-20.13-.73-12.56-.23-12.55-.07-12.57-12.76,0-4.14-.11-8.29-.17-12.43.06-9.38.34-18.76.07-28.13-.11-4.06,1.28-5.13,5-4.83a89.992,89.992,0,0,0,9.85-.1H338.9c7.23.06,14.46.28,21.69.09,3.36-.09,4.17,1.13,4.1,4.26-.15,6.57,0,13.16.11,19.74,0,8.55-.22,17.09-.13,25.64a107.258,107.258,0,0,1-.9,14.23A42.941,42.941,0,0,1,354.76,305c-3.61,3.54-7.07,7.37-12.88,6.55-2.51-.14-2.14-2-2.14-3.61,0-5.92,0-11.85-.05-17.77C339.67,288.58,340.3,286.84,338.93,285.47Z" transform="translate(-163.64 -166.75)" fill="#efefee"/>
      <path id="Path_995" data-name="Path 995" d="M341.88,311.54A45.9,45.9,0,0,0,354.76,305a183.388,183.388,0,0,1-33.71,37.88c-5.68,4.75-11.31,9.57-16.95,14.35H273.24c9.55-5.87,19-11.87,27.77-18.91a224,224,0,0,0,32.93-32.89c1.44-1.74,2.91-3.45,5-5.93v10.18C339,311.69,339.48,313.19,341.88,311.54Z" transform="translate(-163.64 -166.75)" fill="#5d84c3"/>
      <path id="Path_996" data-name="Path 996" d="M328,358.24v.87a1.51,1.51,0,0,1-2.13.21h-7.7a5.541,5.541,0,0,1-2.9.39c-27.71,0-55.43.08-83.14,0a.92.92,0,0,1-.7-1.42H328Z" transform="translate(-163.64 -166.75)" fill="#4c7abd"/>
      <path id="Path_997" data-name="Path 997" d="M231.5,284.29q0-8.88-.1-17.76V245.59c.06-4.91.29-9.84.11-14.74-.11-3.12.72-4.45,4.08-4.26,4.24.23,8.5,0,12.76-.1h37.83c2.79-.15,4,.83,3.91,4-.2,7.36,0,14.74.09,22.11v26.92c-1,15.1-8.28,25.37-22.92,30-2.86-.18-2.05-2.38-2.18-4-.52-6.66,1-13.39-.81-20-4.1-1.7-8.39-.58-12.58-.76C245,284.42,238.23,284.41,231.5,284.29Z" transform="translate(-163.64 -166.75)" fill="#efefee"/>
      <path id="Path_998" data-name="Path 998" d="M231.42,358.24v1c.35.2.46.39.34.58s-.24.27-.36.27l-39.7,39.3c0-.42-.07-.83-.11-1.25l16.93-17.93q9.41-9.18,18.83-18.34C228.65,360.57,230.07,359.43,231.42,358.24Z" transform="translate(-163.64 -166.75)" fill="#517cbe"/>
      <path id="Path_999" data-name="Path 999" d="M197.58,397.11q12.33-13.56,25.88-25.91c6.65-6.77,14.87-9,24.09-8.48.94,0,2,.27,2.79-.49H345.9c-.23,2.36-2.16,2.31-3.68,2.27-7.38-.19-14.82-.09-22.13.43-9.11.66-18.39-.57-27.37,1.91a7,7,0,0,1-1.73.55c-3.58.37-7.19.14-10.78.23-12.23.09-24.45-.24-36.66.14-7.14,1.39-13.71,4-19.08,9.11-12.88,13.47-25.66,27-39.76,39.26a21.42,21.42,0,0,1-7.25,4.14c-1.07.36-2.69,1.08-2.78-1.21l9-8a110.088,110.088,0,0,0,13.9-13.95Z" transform="translate(-163.64 -166.75)" fill="#bfbebe"/>
      <path id="Path_1000" data-name="Path 1000" d="M277.22,369.2c-1.47,1.63-3.43,1.05-5.14.95-10.38-.59-20.64,1.07-31,1.54-6,.28-10.92,4.1-15.23,8.47-13.12,13.31-26.38,26.49-39.59,39.72-3.2,3.19-6.72,5.65-11.32,6.63-2.55.54-4.51.43-6.27-1.49a6.27,6.27,0,0,1,3-3c8.45-.26,13.74-6.23,19.15-11.37,11.28-10.73,22.17-21.89,33.07-33,8.13-7.83,18-10.39,29-9.86,6.24.3,12.5,0,18.76.08C273.59,367.88,275.66,367.54,277.22,369.2Z" transform="translate(-163.64 -166.75)" fill="#c6c5c5"/>
      <path id="Path_1001" data-name="Path 1001" d="M292.15,366.21c1.21-2.58,3.57-1.94,5.66-2q22.45-.53,44.92-1c1.16,0,2.35.09,3.17-1h59.73a1,1,0,0,1-.18,1.4c-2.62,1.58-5.69.4-8.41,1.36a7.379,7.379,0,0,1-1.55.19c-3.12.43-6.24-1-9.37,0-.58,0-1.15.06-1.72.06-9.78-.12-19.53.69-29.3.43a214.183,214.183,0,0,0-31.42,1.3,11.16,11.16,0,0,1-3.46.16,19.65,19.65,0,0,0-9.15.07,101,101,0,0,1-14.34.41C295.09,367.56,293.4,367.61,292.15,366.21Z" transform="translate(-163.64 -166.75)" fill="#c1c1c2"/>
      <path id="Path_1002" data-name="Path 1002" d="M223.46,379.17c-11.62,12.22-23.21,24.47-35.9,35.62-3.11,2.73-5.92,5.76-9.91,7.28-2,.76-4,1.84-6,0a6.23,6.23,0,0,1,3-3c4,1,6.64-1.77,9.31-3.91,9.83-7.87,18.16-17.33,27.11-26.13,4.24-4.16,8.25-8.55,12.36-12.83A2.15,2.15,0,0,1,223.46,379.17Z" transform="translate(-163.64 -166.75)" fill="#c2c2c2"/>
      <path id="Path_1003" data-name="Path 1003" d="M231.41,360.05v-.85l86.73.12c-1.28,1.07-2.82.76-4.28.76Z" transform="translate(-163.64 -166.75)" fill="#5d85c4"/>
      <path id="Path_1004" data-name="Path 1004" d="M395.68,364.22h1c2.88-1.31,6.09.37,9-1v-1a52.8,52.8,0,0,0,13.93-4c-3.78,5.71-10.38,5.78-15.92,8h-9C394.05,365.07,395.14,364.78,395.68,364.22Z" transform="translate(-163.64 -166.75)" fill="#c6c6c6"/>
      <path id="Path_1005" data-name="Path 1005" d="M325.86,359.32l2.13-.21,51.89.21a4.6,4.6,0,0,1-3.28.76H329.14a4.56,4.56,0,0,1-3.28-.76Z" transform="translate(-163.64 -166.75)" fill="#5d85c4"/>
      <path id="Path_1006" data-name="Path 1006" d="M250.34,362.23c-4.12,1.83-8.65,1.08-12.94,2.06-5.26,1.2-9.41,4.38-13.94,6.91,4.79-5.81,10.33-10,18.47-9a73.692,73.692,0,0,0,8.41.03Z" transform="translate(-163.64 -166.75)" fill="#b8b9ba"/>
      <path id="Path_1007" data-name="Path 1007" d="M197.58,397.11a38.4,38.4,0,0,1-13.94,14,112.088,112.088,0,0,1,13.94-14Z" transform="translate(-163.64 -166.75)" fill="#b8b9ba"/>
      <path id="Path_1008" data-name="Path 1008" d="M223.46,379.17v-3c5.38-4.94,11.37-8.6,18.91-9,4.88-1.09,9.81-.24,14.72-.47,7.7-.37,15.43.65,23.11-.53h10.95c.46,1.3-.3,1.92-1.31,2.41-.52.05-1,.07-1.57.07-3.34.3-6.75-.63-10.06.51h-1c-8.93,0-17.85.13-26.77,0s-17.3,1.68-24,8.32A12.78,12.78,0,0,1,223.46,379.17Z" transform="translate(-163.64 -166.75)" fill="#c3c3c3"/>
      <path id="Path_1009" data-name="Path 1009" d="M354.86,364.22h30.86c.63,1.14-.46,1.43-1,2h-12c-6,1.07-12,.22-18,.46C352.81,365.77,353.9,365,354.86,364.22Z" transform="translate(-163.64 -166.75)" fill="#c5c5c5"/>
      <path id="Path_1010" data-name="Path 1010" d="M290.16,368.2l1-2h20.91a13.83,13.83,0,0,1,8,0h3c2.81-1,5.7-.33,8.55-.4a.9.9,0,0,1,.41,1.4h-1c-3.21,1.37-6.74-.43-10,1h-1c-8-1.35-16,.44-24,.45C294,368.66,292,369.18,290.16,368.2Z" transform="translate(-163.64 -166.75)" fill="#c5c5c5"/>
      <path id="Path_1011" data-name="Path 1011" d="M290.16,368.2c7.75.37,15.4-1.66,23.18-1,2.26.18,4.56,0,6.68,1-6.52.33-13,.72-19.56,1-3.76.14-7.53,0-11.3,0-.32-.22-.43-.44-.32-.66s.21-.34.32-.34Z" transform="translate(-163.64 -166.75)" fill="#c6c6c6"/>
      <path id="Path_1012" data-name="Path 1012" d="M332,367.21v-1a51,51,0,0,1,21.9,0h18.91c-1.46,1.63-3.4,1-5.14,1C355.75,367.23,343.86,367.21,332,367.21Z" transform="translate(-163.64 -166.75)" fill="#c6c6c6"/>
      <path id="Path_1013" data-name="Path 1013" d="M395.68,364.22l-1,2h-6c.76-2.09-1.62-1-2-2C389.7,361.78,392.69,365.35,395.68,364.22Z" transform="translate(-163.64 -166.75)" fill="#c5c5c5"/>
      <path id="Path_1014" data-name="Path 1014" d="M289.16,368.2v1h-11C281.7,367.07,285.53,368.73,289.16,368.2Z" transform="translate(-163.64 -166.75)" fill="#c5c5c5"/>
      <path id="Path_1015" data-name="Path 1015" d="M321,368.2c3.15-2,6.65-.54,10-1C327.82,369.24,324.32,367.75,321,368.2Z" transform="translate(-163.64 -166.75)" fill="#c6c6c6"/>
      <path id="Path_1016" data-name="Path 1016" d="M386.72,364.22c1.25.07,3.1-.45,2,2h-4l1-2Z" transform="translate(-163.64 -166.75)" fill="#c6c6c6"/>
      <path id="Path_1017" data-name="Path 1017" d="M321,418.06h20.91a1.88,1.88,0,0,1-.42,2.24c-4.62,4.78-8.75,10.1-14.51,13.69h-20.9a1.84,1.84,0,0,1,.42-2.23C311.13,427,315.26,421.64,321,418.06Z" transform="translate(-163.64 -166.75)" fill="#dadada"/>
      <path id="Path_1018" data-name="Path 1018" d="M321,418.06,306.09,434H286.18a1.86,1.86,0,0,1,.41-2.24c4.63-4.79,8.76-10.11,14.52-13.7Z" transform="translate(-163.64 -166.75)" fill="#d9dada"/>
      <path id="Path_1019" data-name="Path 1019" d="M301.11,418.05,286.18,434H275.23c-.61-2,1-2.87,2.09-4-2.74,1.05-5.35,2.48-8.27,3-.92.17-2.05.91-2.7-.21-.57-1,.13-2,.81-2.65,4.18-4.22,7.8-9.05,13-12.12h10c.5,2.86-2.06,3.74-3.37,5.4,3.95-2,7.93-4.2,12.32-5.4Z" transform="translate(-163.64 -166.75)" fill="#d8d8d8"/>
      <path id="Path_1020" data-name="Path 1020" d="M280.2,418.05,266,433.12l14.51-5.42-5.28,6.3H255.32a1.85,1.85,0,0,1,.4-2.24c4.64-4.78,8.77-10.11,14.53-13.7Z" transform="translate(-163.64 -166.75)" fill="#d7d8d8"/>
      <path id="Path_1021" data-name="Path 1021" d="M327,434l14.93-15.93h9.95Q344.42,426,337,434Z" transform="translate(-163.64 -166.75)" fill="#dbdbdb"/>
      <path id="Path_1022" data-name="Path 1022" d="M244.37,434l14.93-15.94h8a1.79,1.79,0,0,1-.42,2.22c-4.76,4.66-8.89,10-14.51,13.72Z" transform="translate(-163.64 -166.75)" fill="#d7d8d8"/>
      <path id="Path_1023" data-name="Path 1023" d="M252.33,434l14.93-15.94h3L255.32,434Z" transform="translate(-163.64 -166.75)" fill="#d7d6d6"/>
      <path id="Path_1024" data-name="Path 1024" d="M354.85,401.15l5-.11c1.35-.74,2.68-1.19,4,.14V413.6c0,1.76-.08,3.42-2.49,3.42H334.67C341.85,411,349.12,407,354.85,401.15Z" transform="translate(-163.64 -166.75)" fill="#b7b8b8"/>
      <path id="Path_1025" data-name="Path 1025" d="M363.82,401.18l-4-.14c4.33-4.48,8.54-9.07,13-13.39,3.12-3,7.23-.94,10.85-1.5a208.529,208.529,0,0,1-18.9,18.94C364.6,403.75,365.32,402.18,363.82,401.18Z" transform="translate(-163.64 -166.75)" fill="#dbdbdb"/>
      <path id="Path_1026" data-name="Path 1026" d="M312.06,386.15l-13.92,14.9h-10c4.33-4.49,8.54-9.08,13-13.41C304.32,384.63,308.44,386.72,312.06,386.15Z" transform="translate(-163.64 -166.75)" fill="#d7d8d8"/>
      <path id="Path_1027" data-name="Path 1027" d="M288.17,389.14a9.71,9.71,0,0,1,10.57-2.44c-4.65,4.94-9.1,9.65-13.55,14.36h-8C279,395.33,283.78,392.43,288.17,389.14Z" transform="translate(-163.64 -166.75)" fill="#d7d8d7"/>
      <path id="Path_1028" data-name="Path 1028" d="M288.17,389.14l-10.94,11.92h-6C274.66,393.62,282,388.48,288.17,389.14Z" transform="translate(-163.64 -166.75)" fill="#d7d6d6"/>
      <path id="Path_1029" data-name="Path 1029" d="M299.11,418.05c-4.65,3.3-9.9,5.41-15.37,7.26l6.42-7.26Z" transform="translate(-163.64 -166.75)" fill="#d9dada"/>
      <path id="Path_1030" data-name="Path 1030" d="M280.2,366.21c-1.46,1.63-3.4,1-5.13,1-10.9.06-21.8,0-32.7,0a3.08,3.08,0,0,1,2.95-1.43C256.94,366.76,268.58,365.94,280.2,366.21Z" transform="translate(-163.64 -166.75)" fill="#c1c1c2"/>
      <path id="Path_1031" data-name="Path 1031" d="M353.87,366.21H323c5.36-1.66,11-1.53,16.46-1.92,5.1-.36,10.26-.07,15.39-.07Z" transform="translate(-163.64 -166.75)" fill="#c3c3c3"/>
      <path id="Path_1032" data-name="Path 1032" d="M405.63,363.22c-2.8,2-6,.55-9,1C399.47,362.22,402.66,363.66,405.63,363.22Z" transform="translate(-163.64 -166.75)" fill="#c5c5c5"/>
      <path id="Path_1033" data-name="Path 1033" d="M320,366.21h-8A7.43,7.43,0,0,1,320,366.21Z" transform="translate(-163.64 -166.75)" fill="#c3c3c3"/>
    </g>
  </g>
</svg>
